<svg xmlns="http://www.w3.org/2000/svg" viewBox="0 0 23 20"><path fill="#ff4600" d="M22.3 17.87a4.1 4.1 0 0 0-.14-4.52L14.04 1.57C13.27.45 11.87-.25 10.58.17l-.23.07C9.8.45 9.36.9 9.02 1.37L8.1 2.66a.56.56 0 0 0 .73.81l1.12-.63a1.13 1.13 0 0 1 1.49.35l8.14 11.92c.26.39.27.89.03 1.29-.43.71-1.48.78-2 .12L10 6.85a3.04 3.04 0 0 0-4.9.14L.79 13.2a4.2 4.2 0 0 0-.43 4.12c1.4 3.32 5.9 3.56 7.81.52l.4-.66c.5-.92.33-2.09-.4-2.84a.47.47 0 0 0-.68.01L5.5 16.43c-.9.9-1.97.74-2.39-.16-.19-.42-.02-.94.22-1.29l4-5.75a.33.33 0 0 1 .53-.01l7.29 9.1a4.36 4.36 0 0 0 7.13-.45z"/></svg>